<?xml version="1.0" encoding="UTF-8" standalone="no"?>
<!-- Created with Inkscape (http://www.inkscape.org/) -->

<svg
   width="210mm"
   height="297mm"
   viewBox="0 0 210 297"
   version="1.1"
   id="svg5"
   xmlns="http://www.w3.org/2000/svg"
   xmlns:svg="http://www.w3.org/2000/svg">
  <defs
     id="defs2" />
  <g
     id="layer1">
    <path
       d="m 39.24761,64.082445 c 2.012481,-0.637015 4.184127,-1.078878 8.2762,-1.528105 2.147389,-0.235739 5.53509,-0.533337 8.392776,-1.165865 0.0086,-0.0019 0.01709,-0.0044 0.02534,-0.0076 0.399056,-0.152293 0.82679,-0.287044 1.273386,-0.391827 0.239661,-0.05623 0.494368,-0.10608 0.760448,-0.144724 0.624841,-0.09075 1.332742,-0.122492 2.050597,-0.01668 0.618297,0.09114 1.258776,0.286705 1.853923,0.649282 0.535149,0.326025 1.046852,0.795197 1.469338,1.466448 0.0058,0.0092 0.01241,0.01786 0.01976,0.02587 1.23744,1.348639 2.508765,2.982157 3.442154,4.837 0.843246,1.675709 1.437052,3.582759 1.444517,5.679007 0.05496,4.578688 -0.423865,9.46223 -0.387891,14.553262 -0.06267,3.428371 -0.280499,6.951769 -0.309272,10.510045 -0.02812,3.477331 0.12793,7.001731 0.827273,10.488641 0.001,0.005 0.0022,0.01 0.0037,0.015 1.208058,4.14801 3.107567,8.01409 5.373339,11.69191 2.260689,3.66956 4.878,7.13848 7.502229,10.48107 2.431394,2.89485 4.890558,5.76437 7.565334,8.40363 2.725086,2.68889 5.62466,5.08844 8.861752,6.99279 0.0042,0.002 0.0085,0.005 0.01295,0.007 1.27072,0.61441 2.579088,1.04744 3.896278,1.37036 1.34038,0.32861 2.70279,0.54612 4.04765,0.71993 2.90586,0.37554 5.4485,0.53206 8.12793,1.08199 0.005,0.001 0.0109,0.002 0.0164,0.003 3.32675,0.36964 6.4513,0.70073 9.60217,0.69388 3.43433,-0.007 6.57051,-0.42561 9.4898,-1.46151 0.76983,-0.31513 1.31634,-0.62882 1.70898,-0.88956 a 0.18043742,0.18043742 90 0 0 -0.19964,-0.30062 c -0.37411,0.24843 -0.89967,0.55067 -1.63808,0.85316 -2.86259,1.01556 -5.95601,1.43026 -9.36184,1.43766 -3.12511,0.007 -6.22793,-0.32131 -9.55332,-0.69076 -2.69298,-0.55198 -5.27318,-0.71343 -8.1461,-1.08472 -1.3384,-0.17297 -2.68603,-0.38843 -4.00798,-0.71252 -1.29622,-0.31779 -2.577483,-0.7422 -3.818514,-1.34157 -3.201711,-1.88444 -6.075895,-4.26184 -8.784928,-6.9349 -2.661688,-2.62634 -5.11145,-5.48445 -7.53871,-8.37422 -2.618446,-3.33539 -5.225496,-6.79137 -7.47507,-10.44289 -2.25276,-3.65669 -4.135296,-7.49043 -5.331949,-11.59612 -0.691093,-3.44975 -0.846728,-6.94371 -0.818721,-10.407193 0.02867,-3.545161 0.246362,-7.067615 0.309248,-10.510939 -0.03576,-5.06895 0.443158,-9.955676 0.387911,-14.558089 -0.0077,-2.163494 -0.621136,-4.12568 -1.483017,-5.838421 -0.950578,-1.889003 -2.240166,-3.545764 -3.48764,-4.9068 -0.451679,-0.712898 -1.000988,-1.216833 -1.578214,-1.568493 -0.644503,-0.392646 -1.33318,-0.601436 -1.989052,-0.698113 -0.760867,-0.112152 -1.505106,-0.07783 -2.15509,0.01657 -0.277291,0.04027 -0.542225,0.09215 -0.791013,0.150518 -0.458877,0.107665 -0.897802,0.24562 -1.307157,0.401255 -2.830152,0.625079 -6.182416,0.919646 -8.341294,1.156646 -4.105538,0.450705 -6.302607,0.896062 -8.345724,1.542775 a 0.18043742,0.18043742 90 0 0 0.108904,0.34405 z"
       id="path-1"
       style="fill:#0000ff;fill-rule:nonzero;stroke:none" />
  </g>
</svg>
